<svg width="1600" height="900" viewBox="0 0 1600 900" fill="none" xmlns="http://www.w3.org/2000/svg">
  <defs>
    <linearGradient id="bg" x1="0" y1="0" x2="1600" y2="900" gradientUnits="userSpaceOnUse">
      <stop stop-color="#07111F"/>
      <stop offset="0.52" stop-color="#0B2438"/>
      <stop offset="1" stop-color="#102A43"/>
    </linearGradient>
    <linearGradient id="cyan" x1="0" y1="0" x2="1" y2="1">
      <stop stop-color="#7CE7FF"/>
      <stop offset="1" stop-color="#54B6D8"/>
    </linearGradient>
    <linearGradient id="warning" x1="0" y1="0" x2="1" y2="1">
      <stop stop-color="#FFE08A"/>
      <stop offset="1" stop-color="#FF9F45"/>
    </linearGradient>
    <filter id="soft" x="-40%" y="-40%" width="180%" height="180%">
      <feDropShadow dx="0" dy="22" stdDeviation="20" flood-color="#000" flood-opacity="0.28"/>
    </filter>
    <pattern id="grid" width="40" height="40" patternUnits="userSpaceOnUse">
      <path d="M40 0H0V40" stroke="#80D8FF" stroke-opacity="0.08"/>
    </pattern>
    <pattern id="dot" width="18" height="18" patternUnits="userSpaceOnUse">
      <circle cx="1.5" cy="1.5" r="1.5" fill="#9DE7FF" fill-opacity="0.18"/>
    </pattern>
  </defs>

  <rect width="1600" height="900" fill="url(#bg)"/>
  <rect width="1600" height="900" fill="url(#grid)"/>
  <rect width="1600" height="900" fill="url(#dot)" opacity="0.8"/>
  <circle cx="1250" cy="135" r="330" fill="#2DD4BF" opacity="0.12"/>
  <circle cx="450" cy="780" r="380" fill="#60A5FA" opacity="0.09"/>

  <rect x="32" y="26" width="1536" height="72" rx="24" fill="#DFF8FF" fill-opacity="0.07" stroke="#A8F2FF" stroke-opacity="0.18"/>
  <image href="../frontend/src/assets/logo/NexusMind Logo.png" x="55" y="42" width="42" height="42" preserveAspectRatio="xMidYMid slice"/>
  <text x="112" y="58" fill="#E9FBFF" font-family="Inter, Microsoft YaHei, sans-serif" font-size="23" font-weight="800" letter-spacing="2">NexusMind</text>
  <text x="113" y="82" fill="#95C7D7" font-family="Microsoft YaHei, sans-serif" font-size="13">高校舆情推演与决策系统</text>
  <rect x="1120" y="44" width="126" height="34" rx="17" fill="#10B981" fill-opacity="0.16" stroke="#10B981" stroke-opacity="0.38"/>
  <circle cx="1141" cy="61" r="5" fill="#34D399"/>
  <text x="1155" y="66" fill="#B7FFE0" font-size="13" font-family="Inter, Microsoft YaHei">System Ready</text>
  <circle cx="1290" cy="61" r="18" fill="#74B6C7"/>
  <text x="1285" y="67" fill="white" font-size="14" font-weight="800" font-family="Inter">A</text>
  <text x="1320" y="66" fill="#D8F6FF" font-size="14" font-family="Inter">admin</text>
  <rect x="1400" y="44" width="132" height="34" rx="17" fill="#E9FBFF" fill-opacity="0.08" stroke="#E9FBFF" stroke-opacity="0.18"/>
  <text x="1422" y="66" fill="#E8FBFF" font-size="13" font-family="Microsoft YaHei">访问 GitHub ↗</text>

  <g filter="url(#soft)">
    <rect x="64" y="132" width="366" height="704" rx="28" fill="#F7FDFF" fill-opacity="0.09" stroke="#9DE7FF" stroke-opacity="0.18"/>
  </g>
  <text x="96" y="178" fill="#7CE7FF" font-size="14" font-family="Inter" letter-spacing="2">INCIDENT WORKFLOW</text>
  <text x="96" y="220" fill="#F2FDFF" font-size="38" font-weight="900" font-family="Microsoft YaHei">准备就绪</text>
  <text x="98" y="251" fill="#99C9D7" font-size="15" font-family="Microsoft YaHei">导入早期材料，冻结输入窗口，启动高校舆情数字沙盘。</text>

  <rect x="96" y="286" width="142" height="92" rx="20" fill="#DDFBFF" fill-opacity="0.09" stroke="#A8F2FF" stroke-opacity="0.18"/>
  <text x="116" y="326" fill="#F2FDFF" font-size="30" font-weight="800" font-family="Microsoft YaHei">零试错</text>
  <text x="116" y="353" fill="#9AC9D7" font-size="13" font-family="Microsoft YaHei">多方案处置推演</text>
  <rect x="256" y="286" width="142" height="92" rx="20" fill="#DDFBFF" fill-opacity="0.09" stroke="#A8F2FF" stroke-opacity="0.18"/>
  <text x="276" y="326" fill="#F2FDFF" font-size="30" font-weight="800" font-family="Microsoft YaHei">高可扩</text>
  <text x="276" y="353" fill="#9AC9D7" font-size="13" font-family="Microsoft YaHei">群体智能模拟</text>

  <rect x="96" y="414" width="302" height="354" rx="24" fill="#061827" fill-opacity="0.64" stroke="#79DFFF" stroke-opacity="0.18"/>
  <text x="122" y="454" fill="#BDEFFF" font-size="15" font-weight="800" font-family="Microsoft YaHei">闭环工作流</text>
  <g font-family="Microsoft YaHei" font-size="14">
    <circle cx="132" cy="500" r="15" fill="url(#cyan)"/><text x="126" y="505" fill="#032133" font-weight="800">1</text><text x="164" y="505" fill="#F0FDFF" font-weight="800">网络抓取 / 文件上传</text><text x="164" y="530" fill="#82B7C8">汇聚公开舆情与阶段材料</text>
    <line x1="132" y1="516" x2="132" y2="570" stroke="#79DFFF" stroke-opacity="0.36"/>
    <circle cx="132" cy="586" r="15" fill="#163348" stroke="#79DFFF" stroke-opacity="0.8"/><text x="126" y="591" fill="#BDEFFF" font-weight="800">2</text><text x="164" y="591" fill="#F0FDFF" font-weight="800">GraphRAG 图谱构建</text><text x="164" y="616" fill="#82B7C8">实体关系与事件记忆注入</text>
    <line x1="132" y1="602" x2="132" y2="656" stroke="#79DFFF" stroke-opacity="0.36"/>
    <circle cx="132" cy="672" r="15" fill="#163348" stroke="#79DFFF" stroke-opacity="0.8"/><text x="126" y="677" fill="#BDEFFF" font-weight="800">3</text><text x="164" y="677" fill="#F0FDFF" font-weight="800">社会世界模型推演</text><text x="164" y="702" fill="#82B7C8">风险、信任、极化状态反馈</text>
    <line x1="132" y1="688" x2="132" y2="726" stroke="#79DFFF" stroke-opacity="0.36"/>
    <circle cx="132" cy="742" r="15" fill="#163348" stroke="#79DFFF" stroke-opacity="0.8"/><text x="126" y="747" fill="#BDEFFF" font-weight="800">4</text><text x="164" y="747" fill="#F0FDFF" font-weight="800">处置建议与报告生成</text>
  </g>

  <g filter="url(#soft)">
    <rect x="462" y="132" width="664" height="704" rx="32" fill="#F7FDFF" fill-opacity="0.08" stroke="#9DE7FF" stroke-opacity="0.18"/>
  </g>
  <text x="502" y="180" fill="#E7FAFF" font-size="18" font-weight="800" font-family="Microsoft YaHei">高校舆情态势驾驶舱</text>
  <rect x="502" y="206" width="585" height="310" rx="24" fill="#061827" fill-opacity="0.72" stroke="#7CE7FF" stroke-opacity="0.18"/>
  <text x="534" y="248" fill="#A6EFFF" font-size="14" font-family="Inter" letter-spacing="2">WORLD MODEL STATE</text>
  <g transform="translate(725 356)">
    <circle r="112" fill="#7CE7FF" fill-opacity="0.04" stroke="#7CE7FF" stroke-opacity="0.15"/>
    <circle r="84" fill="none" stroke="#7CE7FF" stroke-opacity="0.16"/>
    <circle r="52" fill="none" stroke="#7CE7FF" stroke-opacity="0.22"/>
    <path d="M0 -105 L92 -52 L88 51 L0 106 L-94 54 L-88 -50 Z" stroke="#7CE7FF" stroke-opacity="0.18"/>
    <path d="M0 -86 L68 -28 L58 46 L0 78 L-74 42 L-52 -32 Z" fill="#2DD4BF" fill-opacity="0.22" stroke="#7CE7FF" stroke-width="2"/>
    <circle cx="0" cy="-86" r="5" fill="#7CE7FF"/><circle cx="68" cy="-28" r="5" fill="#7CE7FF"/><circle cx="58" cy="46" r="5" fill="#7CE7FF"/><circle cx="0" cy="78" r="5" fill="#7CE7FF"/><circle cx="-74" cy="42" r="5" fill="#7CE7FF"/><circle cx="-52" cy="-32" r="5" fill="#7CE7FF"/>
  </g>
  <text x="536" y="316" fill="#9AC9D7" font-size="13" font-family="Microsoft YaHei">关注度</text><rect x="536" y="330" width="132" height="8" rx="4" fill="#173248"/><rect x="536" y="330" width="106" height="8" rx="4" fill="#7CE7FF"/>
  <text x="536" y="370" fill="#9AC9D7" font-size="13" font-family="Microsoft YaHei">公众信任</text><rect x="536" y="384" width="132" height="8" rx="4" fill="#173248"/><rect x="536" y="384" width="62" height="8" rx="4" fill="#FFBE55"/>
  <text x="536" y="424" fill="#9AC9D7" font-size="13" font-family="Microsoft YaHei">处置风险</text><rect x="536" y="438" width="132" height="8" rx="4" fill="#173248"/><rect x="536" y="438" width="88" height="8" rx="4" fill="#F87171"/>
  <text x="884" y="316" fill="#9AC9D7" font-size="13" font-family="Microsoft YaHei">立场极化</text><rect x="884" y="330" width="132" height="8" rx="4" fill="#173248"/><rect x="884" y="330" width="94" height="8" rx="4" fill="#A78BFA"/>
  <text x="884" y="370" fill="#9AC9D7" font-size="13" font-family="Microsoft YaHei">系统稳定性</text><rect x="884" y="384" width="132" height="8" rx="4" fill="#173248"/><rect x="884" y="384" width="70" height="8" rx="4" fill="#34D399"/>
  <text x="884" y="424" fill="#9AC9D7" font-size="13" font-family="Microsoft YaHei">二次爆发概率</text><rect x="884" y="438" width="132" height="8" rx="4" fill="#173248"/><rect x="884" y="438" width="74" height="8" rx="4" fill="#FF9F45"/>

  <rect x="502" y="540" width="278" height="240" rx="22" fill="#061827" fill-opacity="0.72" stroke="#7CE7FF" stroke-opacity="0.18"/>
  <text x="530" y="578" fill="#E7FAFF" font-size="16" font-weight="800" font-family="Microsoft YaHei">传播链路</text>
  <g stroke="#7CE7FF" stroke-opacity="0.42" stroke-width="2"><line x1="604" y1="650" x2="674" y2="608"/><line x1="604" y1="650" x2="696" y2="688"/><line x1="604" y1="650" x2="562" y2="716"/><line x1="674" y1="608" x2="716" y2="632"/><line x1="696" y1="688" x2="730" y2="738"/></g>
  <g fill="#7CE7FF"><circle cx="604" cy="650" r="16"/><circle cx="674" cy="608" r="11"/><circle cx="696" cy="688" r="13"/><circle cx="562" cy="716" r="10"/><circle cx="716" cy="632" r="8"/><circle cx="730" cy="738" r="8"/></g>
  <rect x="810" y="540" width="277" height="240" rx="22" fill="#061827" fill-opacity="0.72" stroke="#7CE7FF" stroke-opacity="0.18"/>
  <text x="838" y="578" fill="#E7FAFF" font-size="16" font-weight="800" font-family="Microsoft YaHei">决策分支预览</text>
  <path d="M852 700 C900 622 948 748 1000 630" stroke="#7CE7FF" stroke-width="4" fill="none"/>
  <path d="M852 728 C902 666 948 702 1000 682" stroke="#FFBE55" stroke-width="4" fill="none"/>
  <text x="852" y="626" fill="#9AC9D7" font-size="12" font-family="Microsoft YaHei">公开通报</text>
  <text x="852" y="754" fill="#9AC9D7" font-size="12" font-family="Microsoft YaHei">冷处理</text>

  <g filter="url(#soft)">
    <rect x="1158" y="132" width="378" height="704" rx="32" fill="#F7FDFF" fill-opacity="0.11" stroke="#9DE7FF" stroke-opacity="0.2"/>
  </g>
  <text x="1194" y="182" fill="#E7FAFF" font-size="18" font-weight="800" font-family="Microsoft YaHei">启动新一轮推演</text>
  <rect x="1194" y="212" width="306" height="48" rx="16" fill="#061827" fill-opacity="0.8" stroke="#7CE7FF" stroke-opacity="0.22"/>
  <rect x="1198" y="216" width="149" height="40" rx="13" fill="url(#cyan)"/>
  <text x="1242" y="242" fill="#062235" font-size="14" font-weight="900" font-family="Microsoft YaHei">文件上传</text>
  <text x="1396" y="242" fill="#A2D6E5" font-size="14" font-family="Microsoft YaHei">网络抓取</text>
  <text x="1198" y="292" fill="#9AC9D7" font-size="13" font-family="Microsoft YaHei">支持格式：PDF / MD / TXT</text>
  <rect x="1194" y="318" width="306" height="150" rx="22" fill="#061827" fill-opacity="0.72" stroke="#7CE7FF" stroke-dasharray="8 8" stroke-opacity="0.36"/>
  <text x="1314" y="386" fill="#7CE7FF" font-size="34" font-family="Inter">↑</text>
  <text x="1280" y="424" fill="#E6FAFF" font-size="15" font-weight="800" font-family="Microsoft YaHei">拖拽材料上传</text>
  <text x="1244" y="448" fill="#82B7C8" font-size="12" font-family="Microsoft YaHei">早期通报 / 学生反馈 / 社媒摘录</text>
  <rect x="1194" y="492" width="306" height="46" rx="14" fill="#061827" fill-opacity="0.72" stroke="#7CE7FF" stroke-opacity="0.18"/>
  <circle cx="1218" cy="515" r="8" fill="#7CE7FF" fill-opacity="0.16" stroke="#7CE7FF"/><text x="1238" y="520" fill="#D8F7FF" font-size="14" font-family="Microsoft YaHei">同时启用网络抓取</text>
  <text x="1194" y="582" fill="#9AC9D7" font-size="13" font-family="Inter" letter-spacing="1">02 / 模拟提示词</text>
  <rect x="1194" y="600" width="306" height="132" rx="18" fill="#061827" fill-opacity="0.72" stroke="#7CE7FF" stroke-opacity="0.18"/>
  <text x="1218" y="638" fill="#91C8D8" font-size="13" font-family="Microsoft YaHei">// 评估处分调整后各群体反应</text>
  <text x="1218" y="664" fill="#91C8D8" font-size="13" font-family="Microsoft YaHei">// 推演信任修复路径和二次爆发风险</text>
  <text x="1218" y="690" fill="#91C8D8" font-size="13" font-family="Microsoft YaHei">// 输出分阶段处置建议</text>
  <rect x="1194" y="760" width="306" height="54" rx="20" fill="url(#cyan)"/>
  <text x="1292" y="794" fill="#062235" font-size="17" font-weight="900" font-family="Microsoft YaHei">启动引擎 ↗</text>

  <text x="64" y="874" fill="#5F93A7" font-size="13" font-family="Inter">OPTION 01 · Command Center / 高校舆情战情驾驶舱 · 保留 NexusMind 名称与 logo</text>
</svg>
